<svg width="35" height="47" viewBox="0 0 35 47" fill="none" xmlns="http://www.w3.org/2000/svg">
<path d="M34.8997 9.32192L34.853 9.27525V9.22859L25.9257 0.240588L25.879 0.193921C25.8666 0.193921 25.8548 0.189004 25.846 0.180253C25.8373 0.171501 25.8323 0.159631 25.8323 0.147254C25.82 0.147254 25.8081 0.142338 25.7993 0.133586C25.7906 0.124834 25.7857 0.112965 25.7857 0.100588C25.6442 0.02002 25.4808 -0.0134825 25.319 0.00492115H3.18734C2.36157 -5.14202e-05 1.56762 0.323068 0.980005 0.903254L0.933337 0.949921C0.343031 1.55929 0.00896773 2.37189 2.84593e-07 3.22025V43.4586C-0.000356672 44.3088 0.33509 45.1248 0.933337 45.7289C1.53409 46.3237 2.34203 46.6624 3.18734 46.6739H31.7987C32.2193 46.6735 32.6356 46.5898 33.0237 46.4276C33.4118 46.2654 33.7639 46.0279 34.0597 45.7289C34.65 45.1195 34.984 44.3069 34.993 43.4586V9.79559C34.9896 9.63349 34.958 9.47321 34.8997 9.32192ZM26.208 3.41159L31.5163 8.75492H27.6173C27.4318 8.76014 27.2474 8.72485 27.077 8.65151C26.9065 8.57817 26.7541 8.46853 26.6303 8.33025C26.3693 8.06398 26.2185 7.70897 26.208 7.33625V3.41159ZM32.9747 43.4586C32.9726 43.6185 32.9383 43.7764 32.8737 43.9228C32.8092 44.0691 32.7157 44.2009 32.599 44.3103C32.4914 44.4275 32.361 44.5216 32.2157 44.5866C32.0705 44.6516 31.9135 44.6862 31.7543 44.6883H3.18734C2.87593 44.6789 2.57741 44.5618 2.34267 44.3569C2.23227 44.2452 2.14607 44.1119 2.08947 43.9654C2.03286 43.8188 2.00706 43.6622 2.01366 43.5053V3.17592C2.0157 3.01598 2.05003 2.8581 2.11458 2.71175C2.17914 2.5654 2.27259 2.4336 2.38933 2.32425L2.436 2.27759C2.65761 2.08125 2.9385 1.96463 3.234 1.94625H24.2807V7.28959C24.2819 7.74479 24.3729 8.19529 24.5485 8.61526C24.7241 9.03523 24.9809 9.41642 25.3041 9.737C25.6272 10.0576 26.0105 10.3112 26.4319 10.4834C26.8533 10.6557 27.3045 10.743 27.7597 10.7406H32.9747V43.4586Z" fill="#4D565F"/>
<path d="M7.73242 28V19.4688H9.94141C10.5078 19.4688 11.0195 19.5664 11.4766 19.7617C11.9375 19.9531 12.3301 20.2227 12.6543 20.5703C12.9824 20.9141 13.2344 21.3262 13.4102 21.8066C13.5898 22.2871 13.6797 22.8145 13.6797 23.3887V24.0918C13.6797 24.666 13.5898 25.1934 13.4102 25.6738C13.2344 26.1504 12.9863 26.5625 12.666 26.9102C12.3457 27.2539 11.9609 27.5215 11.5117 27.7129C11.0625 27.9043 10.5664 28 10.0234 28H7.73242ZM9.39062 20.8047V26.6758H10.0234C10.332 26.6758 10.6074 26.6172 10.8496 26.5C11.0957 26.3828 11.3027 26.2129 11.4707 25.9902C11.6426 25.7676 11.7734 25.498 11.8633 25.1816C11.9531 24.8613 11.998 24.498 11.998 24.0918V23.377C11.998 22.9941 11.9531 22.6465 11.8633 22.334C11.7773 22.0176 11.6465 21.7461 11.4707 21.5195C11.2988 21.293 11.084 21.1172 10.8262 20.9922C10.5723 20.8672 10.2773 20.8047 9.94141 20.8047H9.39062ZM20.9277 24.3613C20.9277 24.9082 20.8555 25.4121 20.7109 25.873C20.5664 26.334 20.3574 26.7305 20.084 27.0625C19.8105 27.3945 19.4766 27.6543 19.082 27.8418C18.6914 28.0254 18.25 28.1172 17.7578 28.1172C17.2656 28.1172 16.8281 28.0254 16.4453 27.8418C16.0625 27.6543 15.7402 27.3945 15.4785 27.0625C15.2168 26.7266 15.0176 26.3301 14.8809 25.873C14.7441 25.4121 14.6758 24.9082 14.6758 24.3613V23.1191C14.6758 22.5723 14.7441 22.0684 14.8809 21.6074C15.0176 21.1465 15.2168 20.75 15.4785 20.418C15.7402 20.082 16.0605 19.8203 16.4395 19.6328C16.8223 19.4453 17.2598 19.3516 17.752 19.3516C18.248 19.3516 18.6914 19.4453 19.082 19.6328C19.4766 19.8203 19.8105 20.082 20.084 20.418C20.3574 20.75 20.5664 21.1465 20.7109 21.6074C20.8555 22.0684 20.9277 22.5723 20.9277 23.1191V24.3613ZM19.2578 23.1074C19.2578 22.7598 19.2285 22.4395 19.1699 22.1465C19.1152 21.8535 19.0273 21.6016 18.9062 21.3906C18.7852 21.1797 18.6289 21.0156 18.4375 20.8984C18.25 20.7773 18.0215 20.7168 17.752 20.7168C17.4863 20.7168 17.2637 20.7773 17.084 20.8984C16.9043 21.0156 16.7598 21.1797 16.6504 21.3906C16.541 21.6016 16.4629 21.8535 16.416 22.1465C16.3691 22.4395 16.3457 22.7598 16.3457 23.1074V24.3613C16.3457 24.7051 16.3691 25.0234 16.416 25.3164C16.4629 25.6094 16.541 25.8633 16.6504 26.0781C16.7598 26.293 16.9043 26.4609 17.084 26.582C17.2637 26.7031 17.4883 26.7637 17.7578 26.7637C18.0234 26.7637 18.25 26.7031 18.4375 26.582C18.6289 26.4609 18.7832 26.2949 18.9004 26.084C19.0215 25.8691 19.1113 25.6152 19.1699 25.3223C19.2285 25.0293 19.2578 24.709 19.2578 24.3613V23.1074ZM28.1055 25.3281C28.0781 25.7578 27.9844 26.1445 27.8242 26.4883C27.668 26.832 27.457 27.125 27.1914 27.3672C26.9258 27.6094 26.6094 27.7969 26.2422 27.9297C25.875 28.0586 25.4688 28.123 25.0234 28.123C24.5195 28.123 24.0723 28.0312 23.6816 27.8477C23.291 27.6602 22.9629 27.4004 22.6973 27.0684C22.4316 26.7324 22.2285 26.3301 22.0879 25.8613C21.9473 25.3926 21.877 24.877 21.877 24.3145V23.166C21.877 22.5996 21.9512 22.082 22.0996 21.6133C22.248 21.1445 22.459 20.7422 22.7324 20.4062C23.0059 20.0703 23.3359 19.8105 23.7227 19.627C24.1133 19.4395 24.5508 19.3457 25.0352 19.3457C25.5039 19.3457 25.9199 19.4121 26.2832 19.5449C26.6504 19.6777 26.9629 19.8672 27.2207 20.1133C27.4785 20.3594 27.6816 20.6602 27.8301 21.0156C27.9785 21.3711 28.0723 21.7715 28.1113 22.2168H26.4707C26.4551 21.9629 26.416 21.7402 26.3535 21.5488C26.2949 21.3574 26.207 21.1992 26.0898 21.0742C25.9766 20.9453 25.832 20.8496 25.6562 20.7871C25.4844 20.7207 25.2773 20.6875 25.0352 20.6875C24.7812 20.6875 24.5605 20.7422 24.373 20.8516C24.1855 20.9609 24.0293 21.1211 23.9043 21.332C23.7832 21.543 23.6934 21.8027 23.6348 22.1113C23.5762 22.416 23.5469 22.7637 23.5469 23.1543V24.3145C23.5469 25.1543 23.6641 25.7754 23.8984 26.1777C24.1367 26.5801 24.5117 26.7812 25.0234 26.7812C25.4531 26.7812 25.793 26.668 26.043 26.4414C26.293 26.2109 26.4316 25.8398 26.459 25.3281H28.1055Z" fill="#27AE60"/>
</svg>
