<svg width="60" height="60" viewBox="0 0 60 60" fill="none" xmlns="http://www.w3.org/2000/svg">
<rect width="60" height="60" fill="white"/>
<path d="M44.6217 43.0845L39.0938 41.2422H21.9062L16.3783 43.0845C10.6989 44.9783 6.86719 50.9381 6.86719 56.9258H54.1328C54.1328 50.9381 50.3011 44.9783 44.6217 43.0845Z" fill="#2B2F33"/>
<path d="M41.2046 20.3357L38.6641 19.9727C34.7593 19.4151 31.1402 17.6051 28.3516 14.8164C25.6467 14.8164 23.0997 16.0904 21.4766 18.2539L19.8008 20.4883C19.8878 22.9966 20.1155 25.5876 20.4818 28.0293C20.9378 31.0476 21.3197 33.8894 24.3104 36.4812L24.2566 36.5414C23.469 38.1167 22.6856 39.6834 21.9063 41.2422C23.299 45.4185 25.3725 49.4429 28.1314 53.123L30.5 56.9258L32.8687 53.123C33.9354 51.7008 34.9086 50.2141 35.783 48.6736C37.1236 46.3136 38.2322 43.8246 39.0938 41.2422L36.7434 36.5414L36.6897 36.4812C38.4922 34.914 39.749 32.6871 40.1476 30.297C40.357 29.0326 40.4299 28.6295 40.5246 27.9863C40.8952 25.5081 41.1208 22.8773 41.2046 20.3357Z" fill="#CFDCE5"/>
<path d="M41.2046 20.3357L38.6641 19.9727C34.7593 19.4151 31.1402 17.6051 28.3516 14.8164C25.6467 14.8164 23.0997 16.0904 21.4766 18.2539L19.8008 20.4883C19.8878 22.9966 20.1155 25.5876 20.4818 28.0293C20.9378 31.0476 21.3197 33.8894 24.3104 36.4812L24.2566 36.5414C23.4689 38.1167 30.6074 42.8535 30.6074 42.8535L36.7434 36.5414L36.6896 36.4812C38.4922 34.914 39.749 32.6871 40.1476 30.297C40.357 29.0326 40.4299 28.6295 40.5246 27.9863C40.8952 25.5081 41.1219 22.8773 41.2057 20.3357H41.2046Z" fill="white"/>
<path d="M45.5389 19.1133V25.8809C45.5389 27.0679 44.5774 28.0293 43.3904 28.0293H40.8123L40.5244 27.9863C40.895 25.5081 41.1217 22.8773 41.2055 20.3357C41.2194 19.9254 41.2291 19.5183 41.2334 19.1133H41.242H45.5389Z" fill="#7DCEA0"/>
<path d="M31.4614 8.37109C36.8615 8.37109 41.2454 12.7904 41.2422 18.1905C41.2422 18.7337 41.2308 19.598 41.2057 20.3357C38.3724 19.931 38.6884 19.9761 38.6641 19.9727C34.7593 19.4151 31.1402 17.6051 28.3516 14.8164C25.6467 14.8164 23.0997 16.0904 21.4766 18.2539L19.8008 20.4883C19.7729 19.7387 19.7578 18.8628 19.7578 18.1905C19.7546 12.7904 24.1385 8.37109 29.5386 8.37109H30.5H31.4614Z" fill="#2B2F33"/>
<path d="M30.5 30.1777C31.687 30.1777 32.6484 31.1392 32.6484 32.3262C32.6484 33.5121 31.6859 34.4746 30.5 34.4746H28.3516C27.1646 34.4746 26.2031 33.5132 26.2031 32.3262C26.2031 31.1402 27.1656 30.1777 28.3516 30.1777H30.5Z" fill="#7DCEA0"/>
<path d="M20.4818 28.0293H17.6094C16.4224 28.0293 15.4609 27.0679 15.4609 25.8809V19.1133H19.7578H19.7664C19.7718 19.5677 19.7836 20.0264 19.8008 20.4883C19.8878 22.9966 20.1155 25.5876 20.4818 28.0293Z" fill="#7DCEA0"/>
<path d="M42.3164 47.6875C42.9094 47.6875 43.3906 47.2062 43.3906 46.6133C43.3906 46.0203 42.9094 45.5391 42.3164 45.5391C41.7234 45.5391 41.2422 46.0203 41.2422 46.6133C41.2422 47.2062 41.7234 47.6875 42.3164 47.6875Z" fill="#CFDCE5"/>
<path d="M6.86719 58H54.1328C54.726 58 55.207 57.5191 55.207 56.9258C55.207 50.2947 50.8982 44.045 44.9613 42.0654L39.8556 40.3638L38.0226 36.6978C39.6739 35.0171 40.8204 32.7932 41.2071 30.4737L41.4357 29.1035H43.3906C45.1676 29.1035 46.6133 27.6578 46.6133 25.8809V19.1133C46.6133 10.2284 39.3849 3 30.5 3C21.5924 3 14.3867 10.2077 14.3867 19.1133V25.8809C14.3867 27.2812 15.2849 28.4753 16.5352 28.9188V30.1777C16.5352 31.9547 17.9808 33.4004 19.7578 33.4004H20.7012C21.1669 34.412 21.7696 35.3489 22.5031 36.1906C22.6552 36.3654 22.8139 36.535 22.9764 36.6999L21.1444 40.3638L16.0385 42.0655C10.1019 44.045 5.79297 50.2947 5.79297 56.9258C5.79297 57.5191 6.2739 58 6.86719 58ZM30.5 54.894L29.0431 52.5551C29.0268 52.5289 29.0094 52.5034 28.9909 52.4787C28.121 51.3184 27.3096 50.1048 26.5705 48.8627L30.4015 44.8114L34.4382 48.8481C33.6942 50.0992 32.8799 51.3178 32.0093 52.4785C31.9566 52.5487 32.0313 52.4381 30.5 54.894ZM35.525 46.8964L31.8782 43.2497L36.469 38.3949L37.9304 41.3177C37.2682 43.2339 36.462 45.1031 35.525 46.8964ZM30.3585 41.73L28.2612 39.6326C28.998 39.7878 29.7492 39.8672 30.5 39.8672C31.0877 39.8672 31.6755 39.818 32.2567 39.7226L30.3585 41.73ZM24.3489 38.7588L28.8817 43.2917L25.4745 46.8948C24.5365 45.0994 23.7305 43.2308 23.0694 41.3178L24.3489 38.7588ZM53.0156 55.8516H32.4347L33.7561 53.7302C34.8332 52.2907 35.8294 50.7681 36.717 49.2043C36.7224 49.1948 36.7275 49.1852 36.7328 49.1757L36.7348 49.1723C37.9223 47.0776 38.9379 44.8704 39.7602 42.5967L44.2819 44.1036C49.0483 45.693 52.5899 50.53 53.0156 55.8516ZM17.6094 26.9551C17.0171 26.9551 16.5352 26.4732 16.5352 25.8809V20.1875H18.7156C18.7192 20.2995 18.7229 20.4121 18.7271 20.5254C18.7272 20.5293 18.7274 20.5331 18.7275 20.5369C18.8027 22.6931 18.9823 24.8865 19.2492 26.955L17.6094 26.9551ZM40.1596 19.0907C40.1596 19.0942 40.1595 19.0977 40.1595 19.1012L38.8158 18.9093C35.1657 18.3881 31.7191 16.6648 29.1111 14.0568C28.9096 13.8554 28.6364 13.7422 28.3516 13.7422C25.4666 13.7422 22.705 15.0566 20.8795 17.2772C21.3294 12.9031 25.0272 9.44531 29.5386 9.44531H31.4614C36.2749 9.44531 40.1708 13.3824 40.168 18.1905C40.168 18.5286 40.1653 18.8229 40.1596 19.0907ZM44.4648 25.8809C44.4648 26.4732 43.9829 26.9551 43.3906 26.9551H41.7512C42.0242 24.8399 42.2062 22.5891 42.2793 20.3723C42.2815 20.3097 42.2832 20.2489 42.2851 20.1875H44.4648V25.8809ZM30.5 5.14844C37.8388 5.14844 43.8736 10.8388 44.4239 18.0391H42.3147C42.2373 12.1065 37.4063 7.29688 31.4615 7.29688H29.5387C23.5941 7.29688 18.7627 12.1065 18.6854 18.0391H16.576C17.1201 10.8395 23.1284 5.14844 30.5 5.14844ZM18.6836 30.1777V29.1035H19.5642L19.7928 30.4741C19.8364 30.7346 19.89 30.9941 19.952 31.252H19.7578C19.1655 31.252 18.6836 30.7701 18.6836 30.1777ZM25.3137 33.4004C25.7571 34.6507 26.9511 35.5488 28.3516 35.5488H30.5C32.2805 35.5488 33.7227 34.1068 33.7227 32.3262C33.7227 30.5492 32.277 29.1035 30.5 29.1035H28.3516C26.92 29.1035 25.7436 30.0282 25.3118 31.252H22.1791C21.6413 29.4631 21.026 24.1994 20.89 20.8263L22.3358 18.8985C23.6637 17.1287 25.7295 16.029 27.927 15.9028C30.8185 18.6545 34.5591 20.4716 38.5121 21.036L40.0935 21.262C39.9878 23.5055 39.7718 25.7569 39.4623 27.8275L39.462 27.8296C39.3636 28.4953 39.286 28.9237 39.088 30.1203C38.519 33.5325 35.9729 36.6182 32.6118 37.4586C31.2285 37.8039 29.7712 37.8038 28.3887 37.4586C26.29 36.9339 24.3657 35.4818 23.1238 33.4004H25.3137ZM27.2773 32.3262C27.2773 31.7331 27.7584 31.252 28.3516 31.252H30.5C31.0923 31.252 31.5742 31.7338 31.5742 32.3262C31.5742 32.9194 31.0931 33.4004 30.5 33.4004H28.3516C27.7592 33.4004 27.2773 32.9185 27.2773 32.3262ZM16.718 44.1036L21.2398 42.5967C22.0682 44.8874 23.0946 47.114 24.2974 49.2289C24.2994 49.2325 24.3013 49.2362 24.3034 49.2397C25.1822 50.7854 26.1714 52.2961 27.2438 53.7301L28.5653 55.8516H7.98438C8.41009 50.53 11.9517 45.693 16.718 44.1036Z" fill="#2B2F33"/>
<path d="M45.4358 49.5156C46.4514 50.2969 47.2912 51.3167 47.8648 52.4647C48.1304 52.9963 48.776 53.2103 49.3058 52.9456C49.8365 52.6805 50.0519 52.0353 49.7869 51.5046C49.069 50.0676 48.0174 48.791 46.7459 47.8128C46.2756 47.4509 45.6012 47.5389 45.2395 48.0092C44.8777 48.4795 44.9657 49.1538 45.4358 49.5156Z" fill="#CFDCE5"/>
</svg>
