<svg width="56" height="56" viewBox="0 0 56 56" fill="none" xmlns="http://www.w3.org/2000/svg">
<g clip-path="url(#clip0)">
<path d="M43.3935 41.7934C41.3215 40.3397 38.9135 40.2487 35.9921 41.532L28.0541 45.3167L22.5451 41.8587L30.6255 37.6004C30.9498 37.43 31.1715 37.1174 31.2321 36.758C31.2928 36.3987 31.1808 36.03 30.9265 35.764L30.0211 34.812C27.8908 32.5697 24.6498 32.0237 21.9641 33.447L15.7015 36.744C15.5895 36.5107 15.4145 36.3054 15.1625 36.1864L9.49481 33.489C9.21014 33.3514 8.88115 33.342 8.58948 33.447C8.29315 33.5567 8.05515 33.7807 7.92681 34.0677L0.100811 51.661C-0.155855 52.2397 0.0938112 52.9164 0.665478 53.187L6.33315 55.8867C6.48948 55.9614 6.66214 56.001 6.83481 56.001C6.97248 56.001 7.10781 55.9754 7.23848 55.9287C7.53481 55.819 7.77281 55.595 7.90114 55.308L8.62914 53.6677H30.0748C30.2615 53.6677 30.4458 53.621 30.6115 53.537L46.0115 45.557C46.3801 45.3657 46.6205 44.9924 46.6391 44.5747C46.6601 44.1594 46.4571 43.7627 46.1048 43.541L43.3935 41.7934ZM6.25615 53.2664L2.69781 51.5677L9.57181 36.107L13.1301 37.8034L6.81848 51.9994C6.80448 52.0297 6.79048 52.06 6.77648 52.0927L6.25615 53.2664ZM29.7925 51.3344H9.66748L14.7658 39.8707L23.0515 35.5097C24.7385 34.6137 26.7661 34.917 28.1661 36.2587L16.9148 42.1877C16.3455 42.4864 16.1238 43.1934 16.4248 43.7627C16.6325 44.1594 17.0385 44.388 17.4561 44.388C17.6405 44.388 17.8248 44.3437 17.9975 44.2527L20.1535 43.1164L27.3518 47.6337C27.6901 47.846 28.1101 47.867 28.4718 47.6967L36.9581 43.653C39.0885 42.715 40.6611 42.729 42.0868 43.7277L43.1461 44.4114L29.7925 51.3344Z" fill="#4D565F"/>
</g>
<path d="M38.4782 16.9564C33.8036 16.9564 30 13.1528 30 8.4782C30 3.80362 33.8036 0 38.4782 0C43.1528 0 46.9564 3.80362 46.9564 8.4782C46.9564 13.1528 43.1528 16.9564 38.4782 16.9564ZM38.4782 0.441665C34.0465 0.441665 30.4417 4.04653 30.4417 8.4782C30.4417 12.9099 34.0465 16.5147 38.4782 16.5147C42.9099 16.5147 46.5147 12.9099 46.5147 8.4782C46.5147 4.04653 42.9099 0.441665 38.4782 0.441665Z" fill="#249052"/>
<path d="M20.3829 27.7659C23.9081 27.7659 26.7659 24.9081 26.7659 21.3829C26.7659 17.8577 23.9081 15 20.3829 15C16.8577 15 14 17.8577 14 21.3829C14 24.9081 16.8577 27.7659 20.3829 27.7659Z" fill="#249052"/>
<path d="M39 38C43.4183 38 47 34.4183 47 30C47 25.5817 43.4183 22 39 22C34.5817 22 31 25.5817 31 30C31 34.4183 34.5817 38 39 38Z" fill="#B9B9B9"/>
<rect x="34.8203" y="26.2598" width="8.1131" height="1.20194" fill="white"/>
<rect x="34.8203" y="27.9121" width="8.1131" height="1.20194" fill="white"/>
<rect x="39.9287" y="27.9121" width="7.36188" height="2.1034" transform="rotate(90 39.9287 27.9121)" fill="white"/>
<rect x="34" y="4" width="9.0131" height="1.33527" fill="#249052"/>
<rect x="34" y="5.83594" width="9.0131" height="1.33527" fill="#249052"/>
<rect x="39.6753" y="5.83594" width="8.17855" height="2.33673" transform="rotate(90 39.6753 5.83594)" fill="#249052"/>
<path d="M19.8541 26.3606V25.2503C19.1333 25.2282 18.4125 25.0215 18 24.7468L18.3092 23.6709C18.7561 23.935 19.3965 24.1744 20.0944 24.1744C20.8143 24.1744 21.3072 23.8202 21.3072 23.2708C21.3072 22.7558 20.9062 22.4236 20.0599 22.1145C18.8586 21.6799 18.0804 21.1305 18.0804 20.0669C18.0804 19.0829 18.7667 18.3268 19.923 18.1218V17H20.8611V18.0635C21.5819 18.0865 22.0739 18.2587 22.4405 18.4416L22.1313 19.4936C21.8557 19.3682 21.3531 19.105 20.5749 19.105C19.7737 19.105 19.4875 19.5175 19.4875 19.9062C19.4875 20.3752 19.9 20.6384 20.8726 21.028C22.1534 21.5085 22.7267 22.1268 22.7267 23.1444C22.7267 24.1179 22.051 24.9756 20.7931 25.1814V26.3606H19.8541Z" fill="white"/>
<defs>
<clipPath id="clip0">
<rect width="56" height="56" fill="white"/>
</clipPath>
</defs>
</svg>
