<svg width="172" height="172" viewBox="0 0 172 172" fill="none" xmlns="http://www.w3.org/2000/svg">
<path d="M86 10.32C53.7366 10.32 27.52 36.5366 27.52 68.8C27.52 86.9138 41.7906 110.241 55.685 129.86C69.5794 149.479 83.42 165.013 83.42 165.013C84.0784 165.752 85.0191 166.182 86 166.182C86.9809 166.182 87.9216 165.752 88.58 165.013C88.58 165.013 102.421 149.559 116.315 129.968C130.209 110.376 144.48 87.0078 144.48 68.8C144.48 36.5366 118.263 10.32 86 10.32ZM86 17.2C114.541 17.2 137.6 40.2588 137.6 68.8C137.6 83.1244 124.351 106.774 110.725 125.99C99.1553 142.303 89.2384 153.698 86 157.38C82.7616 153.685 72.8447 142.223 61.275 125.883C47.6494 106.627 34.4 83.0035 34.4 68.8C34.4 40.2588 57.4588 17.2 86 17.2ZM86 55.04C78.4347 55.04 72.24 61.2347 72.24 68.8C72.24 76.3653 78.4347 82.56 86 82.56C93.5653 82.56 99.76 76.3653 99.76 68.8C99.76 61.2347 93.5653 55.04 86 55.04ZM86 61.92C89.8431 61.92 92.88 64.9569 92.88 68.8C92.88 72.6431 89.8431 75.68 86 75.68C82.1569 75.68 79.12 72.6431 79.12 68.8C79.12 64.9569 82.1569 61.92 86 61.92Z" fill="#4D565F"/>
<path d="M116 47C121.5 53 129.2 70.2 116 91" stroke="#27AE60" stroke-width="6"/>
<path d="M55.2884 47C49.7884 53 42.0884 70.2 55.2884 91" stroke="#27AE60" stroke-width="6"/>
</svg>
